<mxfile host="app.diagrams.net" agent="Mozilla/5.0 (Windows NT 10.0; Win64; x64) AppleWebKit/537.36 (KHTML, like Gecko) Chrome/136.0.0.0 Safari/537.36" version="26.2.12">
  <diagram name="Page-1" id="ZfCDLYuZdlFncoXwM9Io">
    <mxGraphModel dx="643" dy="719" grid="1" gridSize="10" guides="1" tooltips="1" connect="1" arrows="1" fold="1" page="1" pageScale="1" pageWidth="850" pageHeight="1100" math="0" shadow="0">
      <root>
        <mxCell id="0" />
        <mxCell id="1" parent="0" />
        <mxCell id="8odU4WqKnBWaSYJA4uRh-1" value="Model" style="shape=folder;fontStyle=1;spacingTop=10;tabWidth=40;tabHeight=14;tabPosition=left;html=1;whiteSpace=wrap;" vertex="1" parent="1">
          <mxGeometry x="90" y="320" width="140" height="100" as="geometry" />
        </mxCell>
        <mxCell id="8odU4WqKnBWaSYJA4uRh-2" value="Connection" style="shape=folder;fontStyle=1;spacingTop=10;tabWidth=40;tabHeight=14;tabPosition=left;html=1;whiteSpace=wrap;" vertex="1" parent="1">
          <mxGeometry x="85" y="490" width="150" height="100" as="geometry" />
        </mxCell>
        <mxCell id="8odU4WqKnBWaSYJA4uRh-5" value="Presentation" style="shape=folder;fontStyle=1;spacingTop=10;tabWidth=40;tabHeight=14;tabPosition=left;html=1;whiteSpace=wrap;" vertex="1" parent="1">
          <mxGeometry x="390" y="120" width="160" height="100" as="geometry" />
        </mxCell>
        <mxCell id="8odU4WqKnBWaSYJA4uRh-6" value="Business Logic Layer" style="shape=folder;fontStyle=1;spacingTop=10;tabWidth=40;tabHeight=14;tabPosition=left;html=1;whiteSpace=wrap;" vertex="1" parent="1">
          <mxGeometry x="390" y="320" width="160" height="100" as="geometry" />
        </mxCell>
        <mxCell id="8odU4WqKnBWaSYJA4uRh-7" value="Data Access Layer" style="shape=folder;fontStyle=1;spacingTop=10;tabWidth=40;tabHeight=14;tabPosition=left;html=1;whiteSpace=wrap;" vertex="1" parent="1">
          <mxGeometry x="390" y="500" width="160" height="90" as="geometry" />
        </mxCell>
        <mxCell id="8odU4WqKnBWaSYJA4uRh-8" value="" style="endArrow=open;endFill=1;endSize=12;html=1;rounded=0;exitX=0.5;exitY=1;exitDx=0;exitDy=0;exitPerimeter=0;entryX=0.509;entryY=0.172;entryDx=0;entryDy=0;entryPerimeter=0;" edge="1" parent="1" source="8odU4WqKnBWaSYJA4uRh-5" target="8odU4WqKnBWaSYJA4uRh-6">
          <mxGeometry width="160" relative="1" as="geometry">
            <mxPoint x="310" y="360" as="sourcePoint" />
            <mxPoint x="470" y="340" as="targetPoint" />
          </mxGeometry>
        </mxCell>
        <mxCell id="8odU4WqKnBWaSYJA4uRh-9" value="" style="endArrow=open;endFill=1;endSize=12;html=1;rounded=0;exitX=0;exitY=0;exitDx=0;exitDy=57;exitPerimeter=0;entryX=0.796;entryY=0.113;entryDx=0;entryDy=0;entryPerimeter=0;" edge="1" parent="1" source="8odU4WqKnBWaSYJA4uRh-5" target="8odU4WqKnBWaSYJA4uRh-1">
          <mxGeometry width="160" relative="1" as="geometry">
            <mxPoint x="310" y="360" as="sourcePoint" />
            <mxPoint x="470" y="360" as="targetPoint" />
          </mxGeometry>
        </mxCell>
        <mxCell id="8odU4WqKnBWaSYJA4uRh-10" value="" style="endArrow=open;endFill=1;endSize=12;html=1;rounded=0;exitX=0;exitY=0;exitDx=0;exitDy=57;exitPerimeter=0;" edge="1" parent="1" source="8odU4WqKnBWaSYJA4uRh-6">
          <mxGeometry width="160" relative="1" as="geometry">
            <mxPoint x="310" y="360" as="sourcePoint" />
            <mxPoint x="230" y="377" as="targetPoint" />
          </mxGeometry>
        </mxCell>
        <mxCell id="8odU4WqKnBWaSYJA4uRh-11" value="" style="endArrow=open;endFill=1;endSize=12;html=1;rounded=0;exitX=0.5;exitY=1;exitDx=0;exitDy=0;exitPerimeter=0;entryX=0.509;entryY=0.214;entryDx=0;entryDy=0;entryPerimeter=0;" edge="1" parent="1" source="8odU4WqKnBWaSYJA4uRh-6" target="8odU4WqKnBWaSYJA4uRh-7">
          <mxGeometry width="160" relative="1" as="geometry">
            <mxPoint x="310" y="360" as="sourcePoint" />
            <mxPoint x="470" y="360" as="targetPoint" />
          </mxGeometry>
        </mxCell>
        <mxCell id="8odU4WqKnBWaSYJA4uRh-12" value="" style="endArrow=open;endFill=1;endSize=12;html=1;rounded=0;exitX=0;exitY=0;exitDx=0;exitDy=52;exitPerimeter=0;entryX=0;entryY=0;entryDx=150;entryDy=57;entryPerimeter=0;" edge="1" parent="1" source="8odU4WqKnBWaSYJA4uRh-7" target="8odU4WqKnBWaSYJA4uRh-2">
          <mxGeometry width="160" relative="1" as="geometry">
            <mxPoint x="310" y="360" as="sourcePoint" />
            <mxPoint x="470" y="360" as="targetPoint" />
          </mxGeometry>
        </mxCell>
        <mxCell id="8odU4WqKnBWaSYJA4uRh-13" value="" style="endArrow=open;endFill=1;endSize=12;html=1;rounded=0;exitX=0;exitY=0;exitDx=0;exitDy=52;exitPerimeter=0;entryX=0.839;entryY=1.022;entryDx=0;entryDy=0;entryPerimeter=0;" edge="1" parent="1" source="8odU4WqKnBWaSYJA4uRh-7" target="8odU4WqKnBWaSYJA4uRh-1">
          <mxGeometry width="160" relative="1" as="geometry">
            <mxPoint x="310" y="360" as="sourcePoint" />
            <mxPoint x="470" y="360" as="targetPoint" />
          </mxGeometry>
        </mxCell>
      </root>
    </mxGraphModel>
  </diagram>
</mxfile>
